<svg width="47" height="50" viewBox="0 0 47 50" fill="none" xmlns="http://www.w3.org/2000/svg">
<path d="M25.88 41.12C24.744 41.12 23.688 40.888 22.712 40.424C21.752 39.96 20.904 39.32 20.168 38.504C19.448 37.688 18.88 36.76 18.464 35.72C18.064 34.68 17.864 33.576 17.864 32.408C17.864 31.256 18.064 30.168 18.464 29.144C18.864 28.104 19.432 27.192 20.168 26.408C20.904 25.608 21.76 24.984 22.736 24.536C23.728 24.072 24.808 23.84 25.976 23.84C27.592 23.84 28.952 24.184 30.056 24.872C31.16 25.544 32 26.44 32.576 27.56L30.512 29.048C30.048 28.12 29.408 27.424 28.592 26.96C27.776 26.496 26.88 26.264 25.904 26.264C24.832 26.264 23.896 26.56 23.096 27.152C22.296 27.728 21.68 28.488 21.248 29.432C20.816 30.376 20.6 31.392 20.6 32.48C20.6 33.632 20.84 34.68 21.32 35.624C21.8 36.552 22.448 37.296 23.264 37.856C24.096 38.416 25.04 38.696 26.096 38.696C27.856 38.696 29.44 37.856 30.848 36.176V34.376H27.272V32.384H33.104V41H30.848V38.888C29.424 40.376 27.768 41.12 25.88 41.12ZM42.314 41V37.928H44.498V41H42.314Z" fill="#7A8377"/>
<path d="M6.84 7.96H9.384L16.008 25H13.176L11.376 20.368H4.8L3.024 25H0.168L6.84 7.96ZM10.848 18.376L8.112 10.912L5.28 18.376H10.848Z" fill="#7A8377"/>
</svg>
